<?xml version="1.0" encoding="UTF-8"?> <svg xmlns="http://www.w3.org/2000/svg" width="37" height="37" viewBox="0 0 37 37" fill="none"> <g clip-path="url(#clip0_14_110)"> <path d="M12.1252 23.4758L12.3522 23.0303L12.1252 23.4758ZM10.4409 21.7914L10.8864 21.5644L10.4409 21.7914ZM26.5591 21.7914L26.1136 21.5644L26.5591 21.7914ZM24.8747 23.4758L24.6477 23.0303L24.8747 23.4758ZM24.8747 11.9826L24.6477 12.4281L24.8747 11.9826ZM26.5591 13.6669L26.1136 13.8939L26.5591 13.6669ZM12.1252 11.9826L12.3522 12.4281L12.1252 11.9826ZM10.4409 13.6669L10.8864 13.8939L10.4409 13.6669ZM15.2954 26.4941C15.0275 26.5611 14.8646 26.8325 14.9316 27.1004C14.9985 27.3683 15.27 27.5312 15.5379 27.4642L15.2954 26.4941ZM16.6304 26.6757L16.5092 26.1906L16.6304 26.6757ZM20.3695 26.6757L20.4908 26.1906H20.4908L20.3695 26.6757ZM21.462 27.4642C21.7299 27.5312 22.0014 27.3683 22.0684 27.1004C22.1354 26.8325 21.9725 26.5611 21.7046 26.4941L21.462 27.4642ZM19 23.8958C19 23.6197 18.7761 23.3958 18.5 23.3958C18.2238 23.3958 18 23.6197 18 23.8958H19ZM18.5 26.4456V26.9456V26.4456ZM16.1875 12.0625H20.8125V11.0625H16.1875V12.0625ZM20.8125 23.3958H16.1875V24.3958H20.8125V23.3958ZM16.1875 23.3958C15.1 23.3958 14.3144 23.3954 13.6968 23.345C13.085 23.295 12.6822 23.1984 12.3522 23.0303L11.8982 23.9213C12.3927 24.1732 12.9417 24.2866 13.6154 24.3417C14.2831 24.3962 15.1165 24.3958 16.1875 24.3958V23.3958ZM9.52081 17.7292C9.52081 18.8002 9.52042 19.6335 9.57498 20.3013C9.63002 20.9749 9.74345 21.524 9.99539 22.0184L10.8864 21.5644C10.7183 21.2344 10.6216 20.8316 10.5717 20.2199C10.5212 19.6023 10.5208 18.8167 10.5208 17.7292H9.52081ZM12.3522 23.0303C11.7211 22.7087 11.208 22.1956 10.8864 21.5644L9.99539 22.0184C10.4128 22.8377 11.0789 23.5038 11.8982 23.9213L12.3522 23.0303ZM26.4791 17.7292C26.4791 18.8167 26.4788 19.6023 26.4283 20.2199C26.3783 20.8316 26.2817 21.2344 26.1136 21.5644L27.0046 22.0184C27.2565 21.524 27.3699 20.9749 27.425 20.3013C27.4795 19.6335 27.4791 18.8002 27.4791 17.7292H26.4791ZM20.8125 24.3958C21.8835 24.3958 22.7168 24.3962 23.3846 24.3417C24.0582 24.2866 24.6073 24.1732 25.1017 23.9213L24.6477 23.0303C24.3177 23.1984 23.9149 23.295 23.3032 23.345C22.6856 23.3954 21.9 23.3958 20.8125 23.3958V24.3958ZM26.1136 21.5644C25.792 22.1956 25.2789 22.7087 24.6477 23.0303L25.1017 23.9213C25.921 23.5038 26.5871 22.8377 27.0046 22.0184L26.1136 21.5644ZM20.8125 12.0625C21.9 12.0625 22.6856 12.0629 23.3032 12.1133C23.9149 12.1633 24.3177 12.2599 24.6477 12.4281L25.1017 11.5371C24.6073 11.2851 24.0582 11.1717 23.3846 11.1167C22.7168 11.0621 21.8835 11.0625 20.8125 11.0625V12.0625ZM27.4791 17.7292C27.4791 16.6581 27.4795 15.8248 27.425 15.157C27.3699 14.4834 27.2565 13.9344 27.0046 13.4399L26.1136 13.8939C26.2817 14.2239 26.3783 14.6267 26.4283 15.2385C26.4788 15.8561 26.4791 16.6416 26.4791 17.7292H27.4791ZM24.6477 12.4281C25.2789 12.7497 25.792 13.2628 26.1136 13.8939L27.0046 13.4399C26.5871 12.6206 25.921 11.9545 25.1017 11.5371L24.6477 12.4281ZM16.1875 11.0625C15.1165 11.0625 14.2831 11.0621 13.6154 11.1167C12.9417 11.1717 12.3927 11.2851 11.8982 11.5371L12.3522 12.4281C12.6822 12.2599 13.085 12.1633 13.6968 12.1133C14.3144 12.0629 15.1 12.0625 16.1875 12.0625V11.0625ZM10.5208 17.7292C10.5208 16.6416 10.5212 15.8561 10.5717 15.2385C10.6216 14.6267 10.7183 14.2239 10.8864 13.8939L9.99539 13.4399C9.74345 13.9344 9.63002 14.4834 9.57498 15.157C9.52042 15.8248 9.52081 16.6581 9.52081 17.7292H10.5208ZM11.8982 11.5371C11.0789 11.9545 10.4128 12.6206 9.99539 13.4399L10.8864 13.8939C11.208 13.2628 11.7211 12.7497 12.3522 12.4281L11.8982 11.5371ZM15.5379 27.4642L16.7517 27.1608L16.5092 26.1906L15.2954 26.4941L15.5379 27.4642ZM20.2483 27.1608L21.462 27.4642L21.7046 26.4941L20.4908 26.1906L20.2483 27.1608ZM19 26.2083V23.8958H18V26.2083H19ZM16.7517 27.1608C17.3256 27.0173 17.9128 26.9456 18.5 26.9456V25.9456C17.8313 25.9456 17.1627 26.0273 16.5092 26.1906L16.7517 27.1608ZM18.5 26.9456C19.0872 26.9456 19.6743 27.0173 20.2483 27.1608L20.4908 26.1906C19.8372 26.0273 19.1686 25.9456 18.5 25.9456V26.9456ZM18 26.2083V26.4456H19V26.2083H18Z" fill="white"></path> </g> <rect x="0.25" y="0.25" width="36.5" height="36.5" rx="7.75" stroke="#BABABA" stroke-width="0.5"></rect> <defs> <clipPath id="clip0_14_110"> <rect width="18.5" height="18.5" fill="white" transform="translate(9.25 9.25)"></rect> </clipPath> </defs> </svg> 