<?xml version="1.0" encoding="UTF-8"?> <svg xmlns="http://www.w3.org/2000/svg" width="21" height="21" viewBox="0 0 21 21" fill="none"> <path d="M8.09375 10.5C8.09375 10.1376 8.38756 9.84375 8.75 9.84375H12.25C12.6124 9.84375 12.9062 10.1376 12.9062 10.5C12.9062 10.8624 12.6124 11.1562 12.25 11.1562H8.75C8.38756 11.1562 8.09375 10.8624 8.09375 10.5Z" fill="#F94C85"></path> <path d="M6.34375 14C6.34375 13.6376 6.63756 13.3438 7 13.3438H14C14.3624 13.3438 14.6562 13.6376 14.6562 14C14.6562 14.3624 14.3624 14.6562 14 14.6562H7C6.63756 14.6562 6.34375 14.3624 6.34375 14Z" fill="#F94C85"></path> <path fill-rule="evenodd" clip-rule="evenodd" d="M14.0284 1.16701C14.9686 1.2409 15.7542 1.39276 16.4309 1.73397C16.6155 1.82708 16.7905 1.93346 16.9573 2.05463C17.3844 2.36496 17.76 2.74058 18.0704 3.16771C18.583 3.87324 18.8125 4.69957 18.923 5.71942C19.0313 6.71878 19.0313 7.97843 19.0312 9.58539V11.4146C19.0313 13.0216 19.0313 14.2812 18.923 15.2806C18.8125 16.3004 18.583 17.1268 18.0704 17.8323C17.76 18.2594 17.3844 18.635 16.9573 18.9454C16.2518 19.458 15.4254 19.6875 14.4056 19.798C13.4062 19.9063 12.1466 19.9063 10.5396 19.9062H10.4604C8.85343 19.9063 7.59378 19.9063 6.59442 19.798C5.57457 19.6875 4.74824 19.458 4.04271 18.9454C3.61558 18.635 3.23996 18.2594 2.92963 17.8323C2.41703 17.1268 2.18751 16.3004 2.07701 15.2806C1.96874 14.2812 1.96874 13.0216 1.96875 11.4146V9.58541C1.96874 7.97844 1.96874 6.71879 2.07701 5.71942C2.18751 4.69957 2.41703 3.87324 2.92963 3.16771C3.23996 2.74058 3.61558 2.36496 4.04271 2.05463C4.36441 1.8209 4.71362 1.64433 5.09914 1.5113C5.73679 1.29129 6.47212 1.19146 7.33673 1.14251C8.19788 1.09375 9.23339 1.09375 10.4822 1.09375H10.5267C11.9485 1.09375 13.0961 1.09374 14.0284 1.16701ZM13.9255 2.47547C13.0505 2.40671 11.954 2.40625 10.5 2.40625C9.22992 2.40625 8.23084 2.40648 7.41093 2.45291C7.12523 2.46909 6.86691 2.49066 6.63177 2.51874C7.35955 3.23795 7.94428 3.79274 8.46625 4.21052C9.16837 4.77246 9.69901 5.03756 10.2367 5.12273C10.6222 5.18377 11.0148 5.18377 11.4002 5.12273C11.9229 5.03994 12.4391 4.78708 13.1124 4.25679C13.6267 3.85177 14.202 3.31033 14.9181 2.60473C14.6331 2.54763 14.3065 2.50541 13.9255 2.47547ZM16.232 3.15057C15.3323 4.04605 14.5922 4.76202 13.9245 5.28792C13.1582 5.89139 12.4352 6.28766 11.6055 6.41907C11.0841 6.50166 10.5529 6.50166 10.0314 6.41907C9.17791 6.28389 8.43713 5.86833 7.64611 5.23522C6.93784 4.66834 6.14326 3.88814 5.1597 2.90608C5.03615 2.96841 4.92187 3.03822 4.81417 3.11647C4.49847 3.34584 4.22084 3.62347 3.99147 3.93917C3.66852 4.38368 3.48027 4.95262 3.38188 5.86079C3.28215 6.78124 3.28125 7.96987 3.28125 9.625V11.375C3.28125 13.0301 3.28215 14.2188 3.38188 15.1392C3.48027 16.0474 3.66852 16.6163 3.99147 17.0608C4.22084 17.3765 4.49847 17.6542 4.81417 17.8835C5.25868 18.2065 5.82762 18.3947 6.73579 18.4931C7.65624 18.5928 8.84487 18.5938 10.5 18.5938C12.1551 18.5938 13.3438 18.5928 14.2642 18.4931C15.1724 18.3947 15.7413 18.2065 16.1858 17.8835C16.5015 17.6542 16.7792 17.3765 17.0085 17.0608C17.3315 16.6163 17.5197 16.0474 17.6181 15.1392C17.7178 14.2188 17.7188 13.0301 17.7188 11.375V9.625C17.7188 7.96987 17.7178 6.78124 17.6181 5.86079C17.5197 4.95262 17.3315 4.38368 17.0085 3.93917C16.7904 3.63896 16.5286 3.37317 16.232 3.15057Z" fill="#F94C85"></path> </svg> 