<?xml version="1.0" encoding="UTF-8"?> <svg xmlns="http://www.w3.org/2000/svg" width="27" height="27" viewBox="0 0 27 27" fill="none"> <path fill-rule="evenodd" clip-rule="evenodd" d="M13.5 4.5C11.17 4.5 9.28125 6.3888 9.28125 8.71875C9.28125 11.0487 11.17 12.9375 13.5 12.9375C15.83 12.9375 17.7188 11.0487 17.7188 8.71875C17.7188 6.3888 15.83 4.5 13.5 4.5ZM10.9688 8.71875C10.9688 7.32078 12.102 6.1875 13.5 6.1875C14.898 6.1875 16.0312 7.32078 16.0312 8.71875C16.0312 10.1167 14.898 11.25 13.5 11.25C12.102 11.25 10.9688 10.1167 10.9688 8.71875Z" fill="#F94C85"></path> <path fill-rule="evenodd" clip-rule="evenodd" d="M10.125 14.625C7.79505 14.625 5.90625 16.5138 5.90625 18.8438C5.90625 21.1737 7.79505 23.0625 10.125 23.0625H16.875C19.205 23.0625 21.0938 21.1737 21.0938 18.8438C21.0938 16.5138 19.205 14.625 16.875 14.625H10.125ZM7.59375 18.8438C7.59375 17.4458 8.72703 16.3125 10.125 16.3125H16.875C18.273 16.3125 19.4062 17.4458 19.4062 18.8438C19.4062 20.2417 18.273 21.375 16.875 21.375H10.125C8.72703 21.375 7.59375 20.2417 7.59375 18.8438Z" fill="#F94C85"></path> <path d="M8.72116 11.6872C8.54372 11.4022 8.21077 11.25 7.875 11.25C6.47703 11.25 5.34375 10.1167 5.34375 8.71875C5.34375 7.32078 6.47703 6.1875 7.875 6.1875C8.21077 6.1875 8.54372 6.03532 8.72116 5.75026C8.72901 5.73766 8.7369 5.72508 8.74485 5.71254C9.04027 5.24622 8.89059 4.58595 8.34188 4.52554C8.18857 4.50866 8.0328 4.5 7.875 4.5C5.54505 4.5 3.65625 6.3888 3.65625 8.71875C3.65625 11.0487 5.54505 12.9375 7.875 12.9375C8.0328 12.9375 8.18857 12.9288 8.34188 12.912C8.89059 12.8515 9.04027 12.1913 8.74485 11.725C8.7369 11.7124 8.72901 11.6998 8.72116 11.6872Z" fill="#F94C85"></path> <path d="M5.29682 20.6065C5.16912 20.3934 4.94369 20.25 4.69529 20.25H4.5C3.10203 20.25 1.96875 19.1167 1.96875 17.7188C1.96875 16.3208 3.10203 15.1875 4.5 15.1875H4.69529C4.94369 15.1875 5.16912 15.0441 5.29682 14.831C5.60856 14.3109 5.27027 13.5 4.6639 13.5H4.5C2.17005 13.5 0.28125 15.3888 0.28125 17.7188C0.28125 20.0487 2.17005 21.9375 4.5 21.9375H4.6639C5.27027 21.9375 5.60856 21.1266 5.29682 20.6065Z" fill="#F94C85"></path> <path d="M18.2552 11.725C17.9597 12.1913 18.1094 12.8515 18.6581 12.912C18.8114 12.9288 18.9672 12.9375 19.125 12.9375C21.455 12.9375 23.3438 11.0487 23.3438 8.71875C23.3438 6.3888 21.455 4.5 19.125 4.5C18.9672 4.5 18.8114 4.50866 18.6581 4.52554C18.1094 4.58595 17.9597 5.24622 18.2552 5.71254C18.2631 5.72508 18.271 5.73765 18.2788 5.75026C18.4563 6.03532 18.7892 6.1875 19.125 6.1875C20.523 6.1875 21.6562 7.32078 21.6562 8.71875C21.6562 10.1167 20.523 11.25 19.125 11.25C18.7892 11.25 18.4563 11.4022 18.2788 11.6872C18.271 11.6998 18.2631 11.7124 18.2552 11.725Z" fill="#F94C85"></path> <path d="M21.7032 20.6065C21.3914 21.1266 21.7297 21.9375 22.3361 21.9375H22.5C24.83 21.9375 26.7188 20.0487 26.7188 17.7188C26.7188 15.3888 24.83 13.5 22.5 13.5H22.3361C21.7297 13.5 21.3914 14.3109 21.7032 14.831C21.8309 15.0441 22.0563 15.1875 22.3047 15.1875H22.5C23.898 15.1875 25.0312 16.3208 25.0312 17.7188C25.0312 19.1167 23.898 20.25 22.5 20.25H22.3047C22.0563 20.25 21.8309 20.3934 21.7032 20.6065Z" fill="#F94C85"></path> </svg> 