<?xml version="1.0" encoding="UTF-8"?> <svg xmlns="http://www.w3.org/2000/svg" width="22" height="21" viewBox="0 0 22 21" fill="none"> <path d="M5.01609 3.03371C7.81263 1.05159 9.2109 0.0605265 10.8078 0.00337732C10.9359 -0.00120715 11.0641 -0.00120715 11.1922 0.00337732C12.7891 0.0605265 14.1874 1.05159 16.9839 3.03371C19.7804 5.01584 21.1787 6.0069 21.7279 7.47084C21.772 7.58827 21.8116 7.70724 21.8467 7.82751C22.2844 9.32677 21.7504 10.9303 20.6822 14.1375L18.8774 19.5561C18.5907 20.4171 17.7682 21 16.8403 21C15.6573 21 14.6983 20.0644 14.6983 18.9104V16.0982C14.6983 15.0153 13.7984 14.1375 12.6884 14.1375H9.3116C8.20159 14.1375 7.30174 15.0153 7.30174 16.0982V18.9104C7.30174 20.0644 6.34273 21 5.15974 21C4.23177 21 3.40933 20.4171 3.12257 19.5561L1.31783 14.1375C0.249649 10.9303 -0.284443 9.32677 0.153309 7.82751C0.188425 7.70724 0.22805 7.58827 0.272105 7.47084C0.821285 6.0069 2.21955 5.01584 5.01609 3.03371Z" fill="#F94C85"></path> </svg> 