<?xml version="1.0" encoding="UTF-8"?> <svg xmlns="http://www.w3.org/2000/svg" width="1200" height="277" viewBox="0 0 1200 277" fill="none"> <rect width="1200" height="277" fill="#333333"></rect> <path d="M507.983 133.102L593.506 230L593.506 72.4352C527.362 9.66207 494.501 82.1249 507.983 133.102Z" fill="#E87272" stroke="#E87272"></path> <path d="M690.817 133.065L593.927 230L593.927 72.3753C668.861 9.57824 706.09 82.0687 690.817 133.065Z" fill="#E87272" stroke="#E87272"></path> <path d="M455.557 138.215V127.78H449.735C448.601 127.78 447.63 127.903 446.824 128.149C446.018 128.395 445.355 128.751 444.836 129.215C444.316 129.666 443.934 130.213 443.688 130.855C443.455 131.484 443.339 132.188 443.339 132.967C443.339 133.787 443.455 134.525 443.688 135.181C443.934 135.823 444.309 136.37 444.815 136.821C445.334 137.272 445.997 137.62 446.804 137.866C447.624 138.099 448.601 138.215 449.735 138.215H455.557ZM459.514 154H455.557V141.351H451.56C451.191 141.351 450.842 141.386 450.514 141.454C450.2 141.509 449.892 141.618 449.592 141.782C449.291 141.946 448.99 142.171 448.69 142.458C448.389 142.732 448.088 143.087 447.788 143.524L441.412 152.585C441.166 153.023 440.831 153.371 440.408 153.631C439.984 153.877 439.485 154 438.911 154H435.918L443.524 143.278C444.344 142.076 445.307 141.222 446.414 140.716C445.239 140.497 444.214 140.156 443.339 139.691C442.464 139.226 441.733 138.666 441.146 138.01C440.572 137.34 440.141 136.582 439.854 135.734C439.567 134.887 439.424 133.971 439.424 132.987C439.424 131.73 439.649 130.589 440.1 129.564C440.565 128.539 441.234 127.664 442.109 126.94C442.997 126.202 444.077 125.635 445.348 125.238C446.633 124.828 448.095 124.623 449.735 124.623H459.514V154ZM494.851 154H491.202V136.103H484.642C484.478 138.741 484.232 141.023 483.904 142.95C483.576 144.864 483.18 146.497 482.715 147.85C482.264 149.189 481.752 150.283 481.178 151.13C480.618 151.964 480.023 152.613 479.394 153.077C478.779 153.542 478.137 153.856 477.467 154.021C476.811 154.185 476.155 154.267 475.499 154.267C474.338 154.267 473.757 154.082 473.757 153.713V151.396H474.823C475.288 151.396 475.759 151.314 476.237 151.15C476.716 150.986 477.18 150.672 477.631 150.207C478.096 149.743 478.54 149.094 478.964 148.26C479.388 147.413 479.77 146.319 480.112 144.98C480.467 143.627 480.768 141.994 481.014 140.08C481.274 138.153 481.472 135.871 481.608 133.233H494.851V154ZM518.63 151.438C520.543 151.438 521.971 150.754 522.914 149.387C523.857 148.007 524.329 146.087 524.329 143.627C524.329 141.153 523.857 139.226 522.914 137.846C521.971 136.466 520.543 135.775 518.63 135.775C516.716 135.775 515.288 136.466 514.345 137.846C513.402 139.226 512.931 141.153 512.931 143.627C512.931 146.087 513.402 148.007 514.345 149.387C515.288 150.754 516.716 151.438 518.63 151.438ZM509.343 142.192C509.466 140.771 509.76 139.486 510.225 138.338C510.703 137.19 511.339 136.213 512.131 135.406C512.938 134.6 513.881 133.985 514.96 133.561C516.054 133.124 517.277 132.905 518.63 132.905C520.078 132.905 521.384 133.158 522.545 133.664C523.721 134.17 524.718 134.887 525.538 135.816C526.358 136.746 526.987 137.873 527.424 139.199C527.875 140.511 528.101 141.98 528.101 143.606C528.101 145.246 527.875 146.722 527.424 148.034C526.973 149.346 526.331 150.467 525.497 151.396C524.664 152.326 523.666 153.043 522.504 153.549C521.343 154.041 520.051 154.287 518.63 154.287C517.249 154.287 516.006 154.068 514.899 153.631C513.805 153.194 512.862 152.572 512.07 151.765C511.277 150.945 510.642 149.955 510.163 148.793C509.699 147.631 509.418 146.319 509.323 144.857H504.3V154H500.631V133.233H504.3V142.192H509.343ZM542.071 151.581C544.121 151.581 545.665 150.932 546.704 149.633C547.756 148.321 548.282 146.49 548.282 144.139C548.282 141.802 547.776 139.978 546.765 138.666C545.767 137.354 544.264 136.698 542.255 136.698C541.285 136.698 540.41 136.855 539.631 137.169C538.852 137.47 538.189 137.914 537.643 138.502C537.11 139.09 536.693 139.814 536.392 140.675C536.105 141.536 535.962 142.52 535.962 143.627C535.962 144.871 536.091 145.984 536.351 146.968C536.611 147.952 536.993 148.786 537.499 149.469C538.018 150.153 538.654 150.679 539.406 151.048C540.171 151.403 541.059 151.581 542.071 151.581ZM543.485 128.354C542.091 128.477 540.895 128.785 539.898 129.277C538.914 129.769 538.094 130.439 537.438 131.286C536.782 132.12 536.29 133.124 535.962 134.299C535.634 135.475 535.442 136.8 535.388 138.276C535.716 137.62 536.139 137.033 536.659 136.513C537.178 135.98 537.772 135.529 538.442 135.16C539.112 134.778 539.836 134.491 540.615 134.299C541.408 134.094 542.248 133.992 543.137 133.992C544.517 133.992 545.754 134.238 546.847 134.73C547.954 135.208 548.89 135.892 549.656 136.78C550.435 137.668 551.029 138.741 551.439 139.998C551.849 141.242 552.054 142.622 552.054 144.139C552.054 145.684 551.815 147.085 551.337 148.342C550.872 149.586 550.202 150.652 549.328 151.54C548.453 152.415 547.401 153.091 546.171 153.569C544.954 154.048 543.588 154.287 542.071 154.287C540.677 154.287 539.371 154.055 538.155 153.59C536.939 153.125 535.886 152.36 534.998 151.294C534.11 150.228 533.406 148.827 532.887 147.091C532.381 145.342 532.128 143.19 532.128 140.634C532.128 138.447 532.326 136.438 532.723 134.607C533.119 132.776 533.754 131.183 534.629 129.83C535.517 128.477 536.659 127.391 538.053 126.571C539.46 125.737 541.169 125.232 543.178 125.054L550.599 124.418L550.804 126.304C550.845 126.728 550.783 127.083 550.619 127.37C550.455 127.657 550.161 127.815 549.738 127.842L543.485 128.354ZM574.289 154H570.64V136.103H564.08C563.916 138.741 563.67 141.023 563.342 142.95C563.014 144.864 562.618 146.497 562.153 147.85C561.702 149.189 561.189 150.283 560.615 151.13C560.055 151.964 559.461 152.613 558.832 153.077C558.217 153.542 557.575 153.856 556.905 154.021C556.249 154.185 555.593 154.267 554.937 154.267C553.775 154.267 553.194 154.082 553.194 153.713V151.396H554.26C554.725 151.396 555.197 151.314 555.675 151.15C556.153 150.986 556.618 150.672 557.069 150.207C557.534 149.743 557.978 149.094 558.401 148.26C558.825 147.413 559.208 146.319 559.549 144.98C559.905 143.627 560.205 141.994 560.451 140.08C560.711 138.153 560.909 135.871 561.046 133.233H574.289V154ZM598.067 151.438C599.981 151.438 601.409 150.754 602.352 149.387C603.295 148.007 603.766 146.087 603.766 143.627C603.766 141.153 603.295 139.226 602.352 137.846C601.409 136.466 599.981 135.775 598.067 135.775C596.154 135.775 594.726 136.466 593.783 137.846C592.84 139.226 592.368 141.153 592.368 143.627C592.368 146.087 592.84 148.007 593.783 149.387C594.726 150.754 596.154 151.438 598.067 151.438ZM588.781 142.192C588.904 140.771 589.198 139.486 589.662 138.338C590.141 137.19 590.776 136.213 591.569 135.406C592.375 134.6 593.318 133.985 594.398 133.561C595.491 133.124 596.714 132.905 598.067 132.905C599.516 132.905 600.821 133.158 601.983 133.664C603.158 134.17 604.156 134.887 604.976 135.816C605.796 136.746 606.424 137.873 606.862 139.199C607.313 140.511 607.538 141.98 607.538 143.606C607.538 145.246 607.313 146.722 606.862 148.034C606.411 149.346 605.768 150.467 604.935 151.396C604.101 152.326 603.103 153.043 601.942 153.549C600.78 154.041 599.489 154.287 598.067 154.287C596.687 154.287 595.443 154.068 594.336 153.631C593.243 153.194 592.3 152.572 591.507 151.765C590.715 150.945 590.079 149.955 589.601 148.793C589.136 147.631 588.856 146.319 588.76 144.857H583.738V154H580.068V133.233H583.738V142.192H588.781ZM642.187 150.884V127.76H632.47C632.306 131.108 632.073 134.047 631.773 136.575C631.472 139.103 631.117 141.297 630.707 143.155C630.297 145.014 629.839 146.572 629.333 147.829C628.828 149.073 628.281 150.091 627.693 150.884H642.187ZM650.981 150.884V159.966C650.981 160.321 650.865 160.608 650.633 160.827C650.4 161.045 650.093 161.155 649.71 161.155H647.353V154H623.675V159.966C623.675 160.321 623.552 160.608 623.306 160.827C623.074 161.045 622.773 161.155 622.404 161.155H620.026V150.884H623.019C623.443 150.679 623.867 150.351 624.29 149.9C624.714 149.435 625.117 148.779 625.5 147.932C625.896 147.071 626.265 145.991 626.607 144.693C626.948 143.395 627.256 141.809 627.529 139.937C627.816 138.051 628.062 135.851 628.267 133.336C628.472 130.821 628.629 127.917 628.739 124.623H646.184V150.884H650.981ZM665.956 144.652C664.275 144.707 662.84 144.843 661.651 145.062C660.475 145.267 659.512 145.54 658.76 145.882C658.022 146.224 657.482 146.627 657.141 147.091C656.813 147.556 656.649 148.075 656.649 148.649C656.649 149.196 656.737 149.668 656.915 150.064C657.093 150.46 657.332 150.788 657.633 151.048C657.947 151.294 658.309 151.478 658.719 151.601C659.143 151.711 659.594 151.765 660.072 151.765C660.714 151.765 661.302 151.704 661.835 151.581C662.368 151.444 662.867 151.253 663.332 151.007C663.81 150.761 664.261 150.467 664.685 150.125C665.122 149.784 665.546 149.394 665.956 148.957V144.652ZM654.168 136.165C655.316 135.058 656.553 134.231 657.879 133.684C659.204 133.138 660.673 132.864 662.286 132.864C663.448 132.864 664.48 133.056 665.382 133.438C666.284 133.821 667.042 134.354 667.657 135.037C668.272 135.721 668.737 136.548 669.051 137.518C669.365 138.488 669.523 139.554 669.523 140.716V154H667.903C667.548 154 667.274 153.945 667.083 153.836C666.892 153.713 666.741 153.481 666.632 153.139L666.222 151.171C665.675 151.677 665.142 152.128 664.623 152.524C664.104 152.907 663.557 153.235 662.983 153.508C662.409 153.768 661.794 153.966 661.138 154.103C660.496 154.253 659.778 154.328 658.986 154.328C658.179 154.328 657.421 154.219 656.71 154C655.999 153.768 655.378 153.426 654.845 152.975C654.325 152.524 653.908 151.957 653.594 151.273C653.293 150.576 653.143 149.756 653.143 148.813C653.143 147.993 653.369 147.208 653.82 146.456C654.271 145.691 655.002 145.014 656.013 144.426C657.024 143.839 658.343 143.36 659.97 142.991C661.596 142.609 663.591 142.39 665.956 142.335V140.716C665.956 139.103 665.607 137.887 664.91 137.067C664.213 136.233 663.195 135.816 661.856 135.816C660.954 135.816 660.195 135.933 659.58 136.165C658.979 136.384 658.453 136.636 658.002 136.923C657.564 137.197 657.182 137.45 656.854 137.682C656.539 137.901 656.225 138.01 655.911 138.01C655.665 138.01 655.453 137.948 655.275 137.825C655.097 137.689 654.947 137.525 654.824 137.333L654.168 136.165ZM692.383 133.233V154H688.713V144.283H678.75V154H675.081V133.233H678.75V141.515H688.713V133.233H692.383ZM715.998 133.233V154H712.349V139.896C712.349 139.623 712.363 139.329 712.39 139.014C712.417 138.7 712.451 138.386 712.492 138.071C712.369 138.345 712.246 138.598 712.123 138.83C712 139.062 711.871 139.274 711.734 139.465L701.709 153.098C701.559 153.317 701.368 153.528 701.135 153.733C700.917 153.925 700.671 154.021 700.397 154.021H698.183V133.254H701.853V147.358C701.853 147.618 701.839 147.905 701.812 148.219C701.785 148.52 701.75 148.827 701.709 149.141C701.832 148.882 701.955 148.643 702.078 148.424C702.201 148.192 702.324 147.98 702.447 147.788L712.472 134.156C712.622 133.937 712.814 133.732 713.046 133.541C713.278 133.336 713.531 133.233 713.804 133.233H715.998ZM739.97 154H736.321V136.103H729.761C729.597 138.741 729.351 141.023 729.023 142.95C728.695 144.864 728.299 146.497 727.834 147.85C727.383 149.189 726.871 150.283 726.297 151.13C725.737 151.964 725.142 152.613 724.513 153.077C723.898 153.542 723.256 153.856 722.586 154.021C721.93 154.185 721.274 154.267 720.618 154.267C719.457 154.267 718.876 154.082 718.876 153.713V151.396H719.942C720.407 151.396 720.878 151.314 721.356 151.15C721.835 150.986 722.299 150.672 722.75 150.207C723.215 149.743 723.659 149.094 724.083 148.26C724.507 147.413 724.889 146.319 725.231 144.98C725.586 143.627 725.887 141.994 726.133 140.08C726.393 138.153 726.591 135.871 726.727 133.233H739.97V154ZM757.004 144.652C755.323 144.707 753.888 144.843 752.699 145.062C751.524 145.267 750.561 145.54 749.809 145.882C749.071 146.224 748.531 146.627 748.189 147.091C747.861 147.556 747.697 148.075 747.697 148.649C747.697 149.196 747.786 149.668 747.964 150.064C748.142 150.46 748.381 150.788 748.681 151.048C748.996 151.294 749.358 151.478 749.768 151.601C750.192 151.711 750.643 151.765 751.121 151.765C751.763 151.765 752.351 151.704 752.884 151.581C753.417 151.444 753.916 151.253 754.38 151.007C754.859 150.761 755.31 150.467 755.733 150.125C756.171 149.784 756.594 149.394 757.004 148.957V144.652ZM745.217 136.165C746.365 135.058 747.602 134.231 748.927 133.684C750.253 133.138 751.722 132.864 753.335 132.864C754.497 132.864 755.528 133.056 756.43 133.438C757.332 133.821 758.091 134.354 758.706 135.037C759.321 135.721 759.786 136.548 760.1 137.518C760.414 138.488 760.571 139.554 760.571 140.716V154H758.952C758.597 154 758.323 153.945 758.132 153.836C757.941 153.713 757.79 153.481 757.681 153.139L757.271 151.171C756.724 151.677 756.191 152.128 755.672 152.524C755.153 152.907 754.606 153.235 754.032 153.508C753.458 153.768 752.843 153.966 752.187 154.103C751.545 154.253 750.827 154.328 750.034 154.328C749.228 154.328 748.47 154.219 747.759 154C747.048 153.768 746.426 153.426 745.893 152.975C745.374 152.524 744.957 151.957 744.643 151.273C744.342 150.576 744.192 149.756 744.192 148.813C744.192 147.993 744.417 147.208 744.868 146.456C745.319 145.691 746.051 145.014 747.062 144.426C748.073 143.839 749.392 143.36 751.018 142.991C752.645 142.609 754.64 142.39 757.004 142.335V140.716C757.004 139.103 756.656 137.887 755.959 137.067C755.262 136.233 754.244 135.816 752.904 135.816C752.002 135.816 751.244 135.933 750.629 136.165C750.028 136.384 749.501 136.636 749.05 136.923C748.613 137.197 748.23 137.45 747.902 137.682C747.588 137.901 747.274 138.01 746.959 138.01C746.713 138.01 746.502 137.948 746.324 137.825C746.146 137.689 745.996 137.525 745.873 137.333L745.217 136.165Z" fill="white"></path> </svg> 