<?xml version="1.0" encoding="UTF-8"?> <svg xmlns="http://www.w3.org/2000/svg" width="37" height="37" viewBox="0 0 37 37" fill="none"> <rect x="0.25" y="0.25" width="36.5" height="36.5" rx="7.75" stroke="#BABABA" stroke-width="0.5"></rect> <path d="M12.5842 15.2786L12.6624 15.7725L12.5842 15.2786ZM16.2786 11.5842L16.7725 11.6624V11.6624L16.2786 11.5842ZM25.1679 25.1512L24.874 24.7467L25.1679 25.1512ZM26.1512 24.1679L25.7467 23.874L26.1512 24.1679ZM11.8488 24.1679L12.2533 23.874L11.8488 24.1679ZM12.8321 25.1512L13.126 24.7467L12.8321 25.1512ZM12.8321 10.8488L12.5382 10.4443L12.8321 10.8488ZM11.8488 11.8321L11.4443 11.5382L11.8488 11.8321ZM25.1679 10.8488L24.874 11.2533L25.1679 10.8488ZM26.1512 11.8321L25.7467 12.126L26.1512 11.8321ZM16.3333 10.0257L16.3162 9.52601L16.3333 10.0257ZM11.0257 15.3333L10.526 15.3162L11.0257 15.3333ZM20.3889 15.3333C20.3889 15.0572 20.165 14.8333 19.8889 14.8333C19.6127 14.8333 19.3889 15.0572 19.3889 15.3333H20.3889ZM23.7996 19.952C23.994 19.7558 23.9925 19.4393 23.7964 19.2449C23.6003 19.0505 23.2837 19.0519 23.0893 19.248L23.7996 19.952ZM22.2019 20.8537L22.557 21.2056L22.2019 20.8537ZM17.5759 20.8537L17.931 20.5017L17.5759 20.8537ZM16.6885 19.248C16.4941 19.0519 16.1775 19.0505 15.9814 19.2449C15.7852 19.4393 15.7838 19.7558 15.9782 19.952L16.6885 19.248ZM20.1117 22.4303L20.1749 22.9263H20.1749L20.1117 22.4303ZM19.6661 22.4303L19.6029 22.9263H19.6029L19.6661 22.4303ZM12.6624 15.7725C14.7781 15.4374 16.4374 13.7781 16.7725 11.6624L15.7848 11.5059C15.5174 13.1937 14.1937 14.5174 12.5059 14.7848L12.6624 15.7725ZM19 26.5C20.6554 26.5 21.9371 26.5007 22.9496 26.391C23.9715 26.2803 24.7782 26.0524 25.4618 25.5557L24.874 24.7467C24.3893 25.0988 23.7787 25.2953 22.8419 25.3968C21.8958 25.4993 20.6777 25.5 19 25.5V26.5ZM26.5 18C26.5 19.6777 26.4993 20.8958 26.3968 21.8419C26.2953 22.7787 26.0988 23.3893 25.7467 23.874L26.5557 24.4618C27.0523 23.7782 27.2803 22.9715 27.391 21.9496C27.5007 20.9371 27.5 19.6554 27.5 18H26.5ZM25.4618 25.5557C25.8816 25.2507 26.2507 24.8816 26.5557 24.4618L25.7467 23.874C25.5034 24.2089 25.2089 24.5034 24.874 24.7467L25.4618 25.5557ZM10.5 18C10.5 19.6554 10.4993 20.9371 10.609 21.9496C10.7197 22.9715 10.9477 23.7782 11.4443 24.4618L12.2533 23.874C11.9012 23.3893 11.7047 22.7787 11.6032 21.8419C11.5007 20.8958 11.5 19.6777 11.5 18H10.5ZM19 25.5C17.3223 25.5 16.1042 25.4993 15.1581 25.3968C14.2213 25.2953 13.6107 25.0988 13.126 24.7467L12.5382 25.5557C13.2218 26.0523 14.0285 26.2803 15.0504 26.391C16.0629 26.5007 17.3446 26.5 19 26.5V25.5ZM11.4443 24.4618C11.7493 24.8816 12.1184 25.2507 12.5382 25.5557L13.126 24.7467C12.7911 24.5034 12.4966 24.2089 12.2533 23.874L11.4443 24.4618ZM12.5382 10.4443C12.1184 10.7493 11.7493 11.1184 11.4443 11.5382L12.2533 12.126C12.4966 11.7911 12.7911 11.4966 13.126 11.2533L12.5382 10.4443ZM19 10.5C20.6777 10.5 21.8958 10.5007 22.8419 10.6032C23.7787 10.7047 24.3893 10.9012 24.874 11.2533L25.4618 10.4443C24.7782 9.94765 23.9715 9.71972 22.9496 9.60901C21.9371 9.49931 20.6554 9.5 19 9.5V10.5ZM27.5 18C27.5 16.3446 27.5007 15.0629 27.391 14.0504C27.2803 13.0285 27.0524 12.2218 26.5557 11.5382L25.7467 12.126C26.0988 12.6107 26.2953 13.2213 26.3968 14.1581C26.4993 15.1042 26.5 16.3223 26.5 18H27.5ZM24.874 11.2533C25.2089 11.4966 25.5034 11.7911 25.7467 12.126L26.5557 11.5382C26.2507 11.1184 25.8816 10.7493 25.4618 10.4443L24.874 11.2533ZM19 9.5C17.9637 9.5 17.0771 9.49994 16.3162 9.52601L16.3505 10.5254C17.0906 10.5001 17.9582 10.5 19 10.5V9.5ZM16.3162 9.52601C14.653 9.58299 13.475 9.76368 12.5382 10.4443L13.126 11.2533C13.7973 10.7655 14.6996 10.582 16.3505 10.5254L16.3162 9.52601ZM15.8333 10.0257C15.8333 10.8527 15.8312 11.2126 15.7848 11.5059L16.7725 11.6624C16.8343 11.272 16.8333 10.8161 16.8333 10.0257L15.8333 10.0257ZM11.5 18C11.5 16.9582 11.5001 16.0906 11.5254 15.3505L10.526 15.3162C10.4999 16.0771 10.5 16.9637 10.5 18H11.5ZM11.5254 15.3505C11.582 13.6996 11.7655 12.7973 12.2533 12.126L11.4443 11.5382C10.7637 12.475 10.583 13.653 10.526 15.3162L11.5254 15.3505ZM11.0257 15.8333C11.8161 15.8333 12.272 15.8343 12.6624 15.7725L12.5059 14.7848C12.2126 14.8312 11.8527 14.8333 11.0257 14.8333L11.0257 15.8333ZM19.3889 15.3333V21.7333H20.3889V15.3333H19.3889ZM23.0893 19.248L21.8468 20.5017L22.557 21.2056L23.7996 19.952L23.0893 19.248ZM17.931 20.5017L16.6885 19.248L15.9782 19.952L17.2207 21.2056L17.931 20.5017ZM21.8468 20.5017C21.3431 21.0099 20.9945 21.3606 20.6986 21.5982C20.4106 21.8295 20.2214 21.9123 20.0485 21.9343L20.1749 22.9263C20.6059 22.8714 20.9663 22.6657 21.3248 22.3779C21.6753 22.0964 22.0699 21.6972 22.557 21.2056L21.8468 20.5017ZM17.2207 21.2056C17.7079 21.6972 18.1025 22.0964 18.453 22.3779C18.8114 22.6657 19.1719 22.8714 19.6029 22.9263L19.7293 21.9343C19.5564 21.9123 19.3672 21.8295 19.0792 21.5982C18.7833 21.3606 18.4347 21.0099 17.931 20.5017L17.2207 21.2056ZM20.0485 21.9343C19.9955 21.9411 19.9422 21.9444 19.8889 21.9444V22.9444C19.9844 22.9444 20.08 22.9384 20.1749 22.9263L20.0485 21.9343ZM19.8889 21.9444C19.8356 21.9444 19.7823 21.9411 19.7293 21.9343L19.6029 22.9263C19.6978 22.9384 19.7934 22.9444 19.8889 22.9444V21.9444ZM19.3889 21.7333V22.4444H20.3889V21.7333H19.3889Z" fill="white"></path> </svg> 